<mxfile host="app.diagrams.net" modified="2023-05-18T12:09:31.284Z" agent="Mozilla/5.0 (Windows NT 10.0; Win64; x64) AppleWebKit/537.36 (KHTML, like Gecko) Chrome/113.0.0.0 Safari/537.36" etag="Uz0jmPIHleZUCan3lNAd" version="21.3.2" type="github">
  <diagram id="C5RBs43oDa-KdzZeNtuy" name="Page-1">
    <mxGraphModel dx="743" dy="1626" grid="0" gridSize="10" guides="1" tooltips="1" connect="1" arrows="1" fold="1" page="1" pageScale="1" pageWidth="827" pageHeight="1169" math="0" shadow="0">
      <root>
        <mxCell id="WIyWlLk6GJQsqaUBKTNV-0" />
        <mxCell id="WIyWlLk6GJQsqaUBKTNV-1" parent="WIyWlLk6GJQsqaUBKTNV-0" />
        <mxCell id="zglZyz7_IqWvCEogxd4c-15" value="" style="rounded=0;orthogonalLoop=1;jettySize=auto;html=1;entryX=0.5;entryY=1;entryDx=0;entryDy=0;" parent="WIyWlLk6GJQsqaUBKTNV-1" source="WIyWlLk6GJQsqaUBKTNV-12" target="zglZyz7_IqWvCEogxd4c-14" edge="1">
          <mxGeometry relative="1" as="geometry">
            <mxPoint x="235.52941176470586" y="294" as="targetPoint" />
          </mxGeometry>
        </mxCell>
        <mxCell id="zglZyz7_IqWvCEogxd4c-18" value="" style="rounded=0;orthogonalLoop=1;jettySize=auto;html=1;exitX=1;exitY=0.5;exitDx=0;exitDy=0;" parent="WIyWlLk6GJQsqaUBKTNV-1" source="WIyWlLk6GJQsqaUBKTNV-12" target="zglZyz7_IqWvCEogxd4c-17" edge="1">
          <mxGeometry relative="1" as="geometry" />
        </mxCell>
        <mxCell id="zglZyz7_IqWvCEogxd4c-21" value="" style="rounded=0;orthogonalLoop=1;jettySize=auto;html=1;entryX=0.5;entryY=0;entryDx=0;entryDy=0;exitX=0.5;exitY=1;exitDx=0;exitDy=0;" parent="WIyWlLk6GJQsqaUBKTNV-1" source="WIyWlLk6GJQsqaUBKTNV-12" target="zglZyz7_IqWvCEogxd4c-19" edge="1">
          <mxGeometry relative="1" as="geometry">
            <mxPoint x="632" y="294" as="targetPoint" />
          </mxGeometry>
        </mxCell>
        <mxCell id="ZnAaNo1HiWn4h6UHbDtW-41" value="" style="rounded=0;orthogonalLoop=1;jettySize=auto;html=1;entryX=0.25;entryY=1;entryDx=0;entryDy=0;" edge="1" parent="WIyWlLk6GJQsqaUBKTNV-1" source="WIyWlLk6GJQsqaUBKTNV-12" target="ZnAaNo1HiWn4h6UHbDtW-38">
          <mxGeometry relative="1" as="geometry">
            <mxPoint x="337" y="324" as="targetPoint" />
          </mxGeometry>
        </mxCell>
        <mxCell id="WIyWlLk6GJQsqaUBKTNV-12" value="Home Screen" style="rounded=1;whiteSpace=wrap;html=1;fontSize=12;glass=0;strokeWidth=1;shadow=0;fillColor=#60a917;strokeColor=#2D7600;fontColor=#ffffff;" parent="WIyWlLk6GJQsqaUBKTNV-1" vertex="1">
          <mxGeometry x="277" y="424" width="120" height="40" as="geometry" />
        </mxCell>
        <mxCell id="ZnAaNo1HiWn4h6UHbDtW-42" value="" style="rounded=0;orthogonalLoop=1;jettySize=auto;html=1;" edge="1" parent="WIyWlLk6GJQsqaUBKTNV-1" source="zglZyz7_IqWvCEogxd4c-14" target="ZnAaNo1HiWn4h6UHbDtW-38">
          <mxGeometry relative="1" as="geometry" />
        </mxCell>
        <mxCell id="zglZyz7_IqWvCEogxd4c-14" value="Map Screen" style="rounded=1;whiteSpace=wrap;html=1;glass=0;strokeWidth=1;shadow=0;fillColor=#e1d5e7;strokeColor=#9673a6;" parent="WIyWlLk6GJQsqaUBKTNV-1" vertex="1">
          <mxGeometry x="167" y="277" width="90" height="40" as="geometry" />
        </mxCell>
        <mxCell id="ZnAaNo1HiWn4h6UHbDtW-44" value="" style="rounded=0;orthogonalLoop=1;jettySize=auto;html=1;entryX=0.443;entryY=1.033;entryDx=0;entryDy=0;entryPerimeter=0;" edge="1" parent="WIyWlLk6GJQsqaUBKTNV-1" source="zglZyz7_IqWvCEogxd4c-17" target="ZnAaNo1HiWn4h6UHbDtW-38">
          <mxGeometry relative="1" as="geometry">
            <mxPoint x="409" y="277" as="targetPoint" />
          </mxGeometry>
        </mxCell>
        <mxCell id="zglZyz7_IqWvCEogxd4c-17" value="Send Request Screen" style="rounded=1;whiteSpace=wrap;html=1;fillColor=#e1d5e7;strokeColor=#9673a6;" parent="WIyWlLk6GJQsqaUBKTNV-1" vertex="1">
          <mxGeometry x="464" y="385.5" width="96" height="40" as="geometry" />
        </mxCell>
        <mxCell id="zglZyz7_IqWvCEogxd4c-19" value="Enable feature rescue" style="rounded=1;whiteSpace=wrap;html=1;fillColor=#fff2cc;strokeColor=#d6b656;" parent="WIyWlLk6GJQsqaUBKTNV-1" vertex="1">
          <mxGeometry x="240" y="537" width="110" height="40" as="geometry" />
        </mxCell>
        <mxCell id="zglZyz7_IqWvCEogxd4c-22" value="Messages Screen" style="rounded=1;whiteSpace=wrap;html=1;fillColor=#e1d5e7;strokeColor=#9673a6;" parent="WIyWlLk6GJQsqaUBKTNV-1" vertex="1">
          <mxGeometry x="391" y="537" width="120" height="40" as="geometry" />
        </mxCell>
        <mxCell id="zglZyz7_IqWvCEogxd4c-23" value="" style="endArrow=classic;html=1;rounded=0;entryX=0.5;entryY=0;entryDx=0;entryDy=0;exitX=0.75;exitY=1;exitDx=0;exitDy=0;" parent="WIyWlLk6GJQsqaUBKTNV-1" source="WIyWlLk6GJQsqaUBKTNV-12" target="zglZyz7_IqWvCEogxd4c-22" edge="1">
          <mxGeometry width="50" height="50" relative="1" as="geometry">
            <mxPoint x="90" y="282" as="sourcePoint" />
            <mxPoint x="317" y="384" as="targetPoint" />
          </mxGeometry>
        </mxCell>
        <mxCell id="ZnAaNo1HiWn4h6UHbDtW-39" value="" style="rounded=0;orthogonalLoop=1;jettySize=auto;html=1;exitX=0.5;exitY=1;exitDx=0;exitDy=0;" edge="1" parent="WIyWlLk6GJQsqaUBKTNV-1" source="zglZyz7_IqWvCEogxd4c-24" target="ZnAaNo1HiWn4h6UHbDtW-38">
          <mxGeometry relative="1" as="geometry" />
        </mxCell>
        <mxCell id="zglZyz7_IqWvCEogxd4c-24" value="Push Notification" style="whiteSpace=wrap;html=1;aspect=fixed;fillColor=#dae8fc;strokeColor=#6c8ebf;" parent="WIyWlLk6GJQsqaUBKTNV-1" vertex="1">
          <mxGeometry x="350" y="57" width="80" height="80" as="geometry" />
        </mxCell>
        <mxCell id="ZnAaNo1HiWn4h6UHbDtW-37" value="Detail &lt;br&gt;Request Screen" style="rounded=1;whiteSpace=wrap;html=1;fillColor=#e1d5e7;strokeColor=#9673a6;" vertex="1" parent="WIyWlLk6GJQsqaUBKTNV-1">
          <mxGeometry x="533" y="158" width="120" height="43" as="geometry" />
        </mxCell>
        <mxCell id="ZnAaNo1HiWn4h6UHbDtW-47" value="" style="rounded=0;orthogonalLoop=1;jettySize=auto;html=1;" edge="1" parent="WIyWlLk6GJQsqaUBKTNV-1" source="ZnAaNo1HiWn4h6UHbDtW-38" target="ZnAaNo1HiWn4h6UHbDtW-37">
          <mxGeometry relative="1" as="geometry" />
        </mxCell>
        <mxCell id="ZnAaNo1HiWn4h6UHbDtW-48" value="" style="rounded=0;orthogonalLoop=1;jettySize=auto;html=1;" edge="1" parent="WIyWlLk6GJQsqaUBKTNV-1" source="ZnAaNo1HiWn4h6UHbDtW-38" target="ZnAaNo1HiWn4h6UHbDtW-46">
          <mxGeometry relative="1" as="geometry" />
        </mxCell>
        <mxCell id="ZnAaNo1HiWn4h6UHbDtW-38" value="Subscribe&lt;br&gt;Push Notification" style="rounded=1;whiteSpace=wrap;html=1;fillColor=#cdeb8b;strokeColor=#36393d;" vertex="1" parent="WIyWlLk6GJQsqaUBKTNV-1">
          <mxGeometry x="332" y="208" width="120" height="60" as="geometry" />
        </mxCell>
        <mxCell id="ZnAaNo1HiWn4h6UHbDtW-46" value="Pending&lt;br&gt;Request Screen" style="rounded=1;whiteSpace=wrap;html=1;fillColor=#e1d5e7;strokeColor=#9673a6;" vertex="1" parent="WIyWlLk6GJQsqaUBKTNV-1">
          <mxGeometry x="533" y="266" width="120" height="55" as="geometry" />
        </mxCell>
        <mxCell id="ZnAaNo1HiWn4h6UHbDtW-49" value="" style="endArrow=classic;html=1;rounded=0;exitX=0.75;exitY=0;exitDx=0;exitDy=0;entryX=0;entryY=0.75;entryDx=0;entryDy=0;" edge="1" parent="WIyWlLk6GJQsqaUBKTNV-1" source="WIyWlLk6GJQsqaUBKTNV-12" target="ZnAaNo1HiWn4h6UHbDtW-46">
          <mxGeometry width="50" height="50" relative="1" as="geometry">
            <mxPoint x="380" y="462" as="sourcePoint" />
            <mxPoint x="430" y="412" as="targetPoint" />
          </mxGeometry>
        </mxCell>
        <mxCell id="ZnAaNo1HiWn4h6UHbDtW-51" value="" style="rounded=0;html=1;jettySize=auto;orthogonalLoop=1;fontSize=11;endArrow=block;endFill=0;endSize=8;strokeWidth=1;shadow=0;labelBackgroundColor=none;edgeStyle=orthogonalEdgeStyle;" edge="1" parent="WIyWlLk6GJQsqaUBKTNV-1" source="ZnAaNo1HiWn4h6UHbDtW-52" target="ZnAaNo1HiWn4h6UHbDtW-55">
          <mxGeometry relative="1" as="geometry" />
        </mxCell>
        <mxCell id="ZnAaNo1HiWn4h6UHbDtW-52" value="Start" style="rounded=1;whiteSpace=wrap;html=1;fontSize=12;glass=0;strokeWidth=1;shadow=0;fillColor=#60a917;strokeColor=#2D7600;fontColor=#ffffff;" vertex="1" parent="WIyWlLk6GJQsqaUBKTNV-1">
          <mxGeometry x="264" y="-492" width="120" height="40" as="geometry" />
        </mxCell>
        <mxCell id="ZnAaNo1HiWn4h6UHbDtW-53" value="False" style="rounded=0;html=1;jettySize=auto;orthogonalLoop=1;fontSize=11;endArrow=block;endFill=0;endSize=8;strokeWidth=1;shadow=0;labelBackgroundColor=none;edgeStyle=orthogonalEdgeStyle;" edge="1" parent="WIyWlLk6GJQsqaUBKTNV-1" source="ZnAaNo1HiWn4h6UHbDtW-55" target="ZnAaNo1HiWn4h6UHbDtW-60">
          <mxGeometry y="20" relative="1" as="geometry">
            <mxPoint as="offset" />
          </mxGeometry>
        </mxCell>
        <mxCell id="ZnAaNo1HiWn4h6UHbDtW-54" value="True" style="edgeStyle=orthogonalEdgeStyle;rounded=0;orthogonalLoop=1;jettySize=auto;html=1;" edge="1" parent="WIyWlLk6GJQsqaUBKTNV-1" source="ZnAaNo1HiWn4h6UHbDtW-55">
          <mxGeometry relative="1" as="geometry">
            <mxPoint x="194" y="-362" as="targetPoint" />
          </mxGeometry>
        </mxCell>
        <mxCell id="ZnAaNo1HiWn4h6UHbDtW-55" value="First Install" style="rhombus;whiteSpace=wrap;html=1;shadow=0;fontFamily=Helvetica;fontSize=12;align=center;strokeWidth=1;spacing=6;spacingTop=-4;fillColor=#d5e8d4;gradientColor=#97d077;strokeColor=#82b366;" vertex="1" parent="WIyWlLk6GJQsqaUBKTNV-1">
          <mxGeometry x="274" y="-402" width="100" height="80" as="geometry" />
        </mxCell>
        <mxCell id="ZnAaNo1HiWn4h6UHbDtW-56" value="" style="rounded=0;orthogonalLoop=1;jettySize=auto;html=1;entryX=0;entryY=0.5;entryDx=0;entryDy=0;edgeStyle=orthogonalEdgeStyle;exitX=0.5;exitY=1;exitDx=0;exitDy=0;" edge="1" parent="WIyWlLk6GJQsqaUBKTNV-1" source="ZnAaNo1HiWn4h6UHbDtW-57" target="ZnAaNo1HiWn4h6UHbDtW-62">
          <mxGeometry relative="1" as="geometry">
            <mxPoint x="132" y="-249" as="targetPoint" />
          </mxGeometry>
        </mxCell>
        <mxCell id="ZnAaNo1HiWn4h6UHbDtW-57" value="Splash screen" style="rounded=1;whiteSpace=wrap;html=1;fontSize=12;glass=0;strokeWidth=1;shadow=0;fillColor=#e1d5e7;strokeColor=#9673a6;" vertex="1" parent="WIyWlLk6GJQsqaUBKTNV-1">
          <mxGeometry x="72" y="-389" width="120" height="40" as="geometry" />
        </mxCell>
        <mxCell id="ZnAaNo1HiWn4h6UHbDtW-58" value="False" style="rounded=0;html=1;jettySize=auto;orthogonalLoop=1;fontSize=11;endArrow=block;endFill=0;endSize=8;strokeWidth=1;shadow=0;labelBackgroundColor=none;edgeStyle=orthogonalEdgeStyle;" edge="1" parent="WIyWlLk6GJQsqaUBKTNV-1" source="ZnAaNo1HiWn4h6UHbDtW-60" target="ZnAaNo1HiWn4h6UHbDtW-62">
          <mxGeometry x="0.322" y="20" relative="1" as="geometry">
            <mxPoint as="offset" />
          </mxGeometry>
        </mxCell>
        <mxCell id="ZnAaNo1HiWn4h6UHbDtW-59" value="True" style="rounded=0;orthogonalLoop=1;jettySize=auto;html=1;" edge="1" parent="WIyWlLk6GJQsqaUBKTNV-1" source="ZnAaNo1HiWn4h6UHbDtW-60" target="ZnAaNo1HiWn4h6UHbDtW-69">
          <mxGeometry relative="1" as="geometry" />
        </mxCell>
        <mxCell id="ZnAaNo1HiWn4h6UHbDtW-60" value="Authenticated" style="rhombus;whiteSpace=wrap;html=1;shadow=0;fontFamily=Helvetica;fontSize=12;align=center;strokeWidth=1;spacing=6;spacingTop=-4;fillColor=#d5e8d4;gradientColor=#97d077;strokeColor=#82b366;" vertex="1" parent="WIyWlLk6GJQsqaUBKTNV-1">
          <mxGeometry x="274" y="-282" width="100" height="80" as="geometry" />
        </mxCell>
        <mxCell id="ZnAaNo1HiWn4h6UHbDtW-61" value="" style="rounded=0;orthogonalLoop=1;jettySize=auto;html=1;entryX=0;entryY=0.5;entryDx=0;entryDy=0;exitX=1;exitY=0.5;exitDx=0;exitDy=0;edgeStyle=orthogonalEdgeStyle;" edge="1" parent="WIyWlLk6GJQsqaUBKTNV-1" source="ZnAaNo1HiWn4h6UHbDtW-62" target="ZnAaNo1HiWn4h6UHbDtW-66">
          <mxGeometry relative="1" as="geometry">
            <mxPoint x="412" y="-87" as="sourcePoint" />
          </mxGeometry>
        </mxCell>
        <mxCell id="ZnAaNo1HiWn4h6UHbDtW-62" value="Sign In" style="rounded=1;whiteSpace=wrap;html=1;fontSize=12;glass=0;strokeWidth=1;shadow=0;fillColor=#e1d5e7;strokeColor=#9673a6;" vertex="1" parent="WIyWlLk6GJQsqaUBKTNV-1">
          <mxGeometry x="285" y="-143" width="78" height="40" as="geometry" />
        </mxCell>
        <mxCell id="ZnAaNo1HiWn4h6UHbDtW-63" value="" style="edgeStyle=orthogonalEdgeStyle;rounded=0;orthogonalLoop=1;jettySize=auto;html=1;" edge="1" parent="WIyWlLk6GJQsqaUBKTNV-1" source="ZnAaNo1HiWn4h6UHbDtW-66" target="ZnAaNo1HiWn4h6UHbDtW-68">
          <mxGeometry relative="1" as="geometry" />
        </mxCell>
        <mxCell id="ZnAaNo1HiWn4h6UHbDtW-64" value="Yes" style="edgeStyle=orthogonalEdgeStyle;rounded=0;orthogonalLoop=1;jettySize=auto;html=1;" edge="1" parent="WIyWlLk6GJQsqaUBKTNV-1" source="ZnAaNo1HiWn4h6UHbDtW-66" target="ZnAaNo1HiWn4h6UHbDtW-68">
          <mxGeometry relative="1" as="geometry" />
        </mxCell>
        <mxCell id="ZnAaNo1HiWn4h6UHbDtW-65" value="False" style="edgeStyle=orthogonalEdgeStyle;rounded=0;orthogonalLoop=1;jettySize=auto;html=1;" edge="1" parent="WIyWlLk6GJQsqaUBKTNV-1" source="ZnAaNo1HiWn4h6UHbDtW-66" target="ZnAaNo1HiWn4h6UHbDtW-69">
          <mxGeometry relative="1" as="geometry" />
        </mxCell>
        <mxCell id="ZnAaNo1HiWn4h6UHbDtW-66" value="Is new&lt;br&gt;account" style="rhombus;whiteSpace=wrap;html=1;fillColor=#d5e8d4;strokeColor=#82b366;gradientColor=#97d077;" vertex="1" parent="WIyWlLk6GJQsqaUBKTNV-1">
          <mxGeometry x="459" y="-157" width="100" height="68" as="geometry" />
        </mxCell>
        <mxCell id="ZnAaNo1HiWn4h6UHbDtW-67" value="" style="rounded=0;orthogonalLoop=1;jettySize=auto;html=1;" edge="1" parent="WIyWlLk6GJQsqaUBKTNV-1" source="ZnAaNo1HiWn4h6UHbDtW-68" target="ZnAaNo1HiWn4h6UHbDtW-69">
          <mxGeometry relative="1" as="geometry" />
        </mxCell>
        <mxCell id="ZnAaNo1HiWn4h6UHbDtW-68" value="Sign up Info" style="rounded=1;whiteSpace=wrap;html=1;fillColor=#e1d5e7;strokeColor=#9673a6;" vertex="1" parent="WIyWlLk6GJQsqaUBKTNV-1">
          <mxGeometry x="612" y="-262.5" width="120" height="41" as="geometry" />
        </mxCell>
        <mxCell id="ZnAaNo1HiWn4h6UHbDtW-69" value="Home Screen" style="rounded=1;whiteSpace=wrap;html=1;fontSize=12;glass=0;strokeWidth=1;shadow=0;fillColor=#e1d5e7;strokeColor=#9673a6;" vertex="1" parent="WIyWlLk6GJQsqaUBKTNV-1">
          <mxGeometry x="449" y="-263" width="120" height="40" as="geometry" />
        </mxCell>
      </root>
    </mxGraphModel>
  </diagram>
</mxfile>
